<?xml version="1.0" encoding="UTF-8" standalone="no"?>
<!-- Created with Inkscape (http://www.inkscape.org/) -->

<svg
   width="800"
   height="800"
   viewBox="0 0 211.66667 211.66667"
   version="1.1"
   id="svg1"
   inkscape:version="1.4.3 (0d15f75, 2025-12-25)"
   sodipodi:docname="LucyLogoTransparentInside.svg"
   inkscape:export-filename="LucyLogoTransparentInside.png"
   inkscape:export-xdpi="96"
   inkscape:export-ydpi="96"
   xmlns:inkscape="http://www.inkscape.org/namespaces/inkscape"
   xmlns:sodipodi="http://sodipodi.sourceforge.net/DTD/sodipodi-0.dtd"
   xmlns="http://www.w3.org/2000/svg"
   xmlns:svg="http://www.w3.org/2000/svg"
   xmlns:rdf="http://www.w3.org/1999/02/22-rdf-syntax-ns#"
   xmlns:cc="http://creativecommons.org/ns#"
   xmlns:dc="http://purl.org/dc/elements/1.1/">
  <title
     id="title18">Saperate`s Logo</title>
  <sodipodi:namedview
     id="namedview1"
     pagecolor="#ffffff"
     bordercolor="#999999"
     borderopacity="1"
     inkscape:showpageshadow="2"
     inkscape:pageopacity="0"
     inkscape:pagecheckerboard="0"
     inkscape:deskcolor="#d1d1d1"
     inkscape:document-units="px"
     inkscape:zoom="0.83290816"
     inkscape:cx="375.19143"
     inkscape:cy="450.83002"
     inkscape:window-width="1440"
     inkscape:window-height="829"
     inkscape:window-x="-8"
     inkscape:window-y="-8"
     inkscape:window-maximized="1"
     inkscape:current-layer="layer1" />
  <defs
     id="defs1">
    <inkscape:path-effect
       effect="mirror_symmetry"
       start_point="105.83334,0"
       end_point="105.83334,211.66667"
       center_point="105.83334,105.83334"
       id="path-effect18"
       is_visible="true"
       lpeversion="1.2"
       lpesatellites=""
       mode="vertical"
       discard_orig_path="false"
       fuse_paths="false"
       oposite_fuse="false"
       split_items="false"
       split_open="false"
       link_styles="false" />
    <inkscape:path-effect
       effect="mirror_symmetry"
       start_point="105.83334,0"
       end_point="105.83334,211.66667"
       center_point="105.83334,105.83334"
       id="path-effect17"
       is_visible="true"
       lpeversion="1.2"
       lpesatellites=""
       mode="vertical"
       discard_orig_path="false"
       fuse_paths="true"
       oposite_fuse="false"
       split_items="false"
       split_open="false"
       link_styles="false" />
    <inkscape:path-effect
       effect="mirror_symmetry"
       start_point="105.83334,0"
       end_point="105.83334,211.66667"
       center_point="105.83334,105.83334"
       id="path-effect16"
       is_visible="true"
       lpeversion="1.2"
       lpesatellites=""
       mode="vertical"
       discard_orig_path="false"
       fuse_paths="true"
       oposite_fuse="false"
       split_items="false"
       split_open="false"
       link_styles="false" />
    <inkscape:path-effect
       effect="mirror_symmetry"
       start_point="105.83334,0"
       end_point="105.83334,211.66667"
       center_point="105.83334,105.83334"
       id="path-effect15"
       is_visible="true"
       lpeversion="1.2"
       lpesatellites=""
       mode="vertical"
       discard_orig_path="false"
       fuse_paths="false"
       oposite_fuse="false"
       split_items="false"
       split_open="false"
       link_styles="false" />
    <inkscape:path-effect
       effect="mirror_symmetry"
       start_point="68.538899,-43.724495"
       end_point="162.90936,238.36372"
       center_point="115.72413,97.319611"
       id="path-effect14"
       is_visible="true"
       lpeversion="1.2"
       lpesatellites=""
       mode="vertical"
       discard_orig_path="false"
       fuse_paths="false"
       oposite_fuse="false"
       split_items="false"
       split_open="false"
       link_styles="false" />
    <inkscape:path-effect
       effect="mirror_symmetry"
       start_point="74.364283,-2.0525536"
       end_point="133.1274,201.29364"
       center_point="103.74584,99.620544"
       id="path-effect13"
       is_visible="true"
       lpeversion="1.2"
       lpesatellites=""
       mode="vertical"
       discard_orig_path="false"
       fuse_paths="false"
       oposite_fuse="false"
       split_items="false"
       split_open="false"
       link_styles="false" />
    <inkscape:path-effect
       effect="mirror_symmetry"
       start_point="110.33125,11.377084"
       end_point="110.33125,223.04375"
       center_point="110.33125,117.21042"
       id="path-effect12"
       is_visible="true"
       lpeversion="1.2"
       lpesatellites=""
       mode="vertical"
       discard_orig_path="false"
       fuse_paths="false"
       oposite_fuse="false"
       split_items="false"
       split_open="false"
       link_styles="false" />
    <inkscape:path-effect
       effect="mirror_symmetry"
       start_point="105.83334,0"
       end_point="105.83334,211.66667"
       center_point="105.83334,105.83334"
       id="path-effect11"
       is_visible="true"
       lpeversion="1.2"
       lpesatellites=""
       mode="vertical"
       discard_orig_path="false"
       fuse_paths="false"
       oposite_fuse="false"
       split_items="false"
       split_open="false"
       link_styles="false" />
    <inkscape:path-effect
       effect="mirror_symmetry"
       start_point="103.12136,-1.5875"
       end_point="103.12136,210.07917"
       center_point="103.12136,104.24583"
       id="path-effect10"
       is_visible="true"
       lpeversion="1.2"
       lpesatellites=""
       mode="vertical"
       discard_orig_path="false"
       fuse_paths="false"
       oposite_fuse="false"
       split_items="false"
       split_open="false"
       link_styles="false" />
    <inkscape:path-effect
       effect="mirror_symmetry"
       start_point="105.27207,0.56126601"
       end_point="105.27207,212.22794"
       center_point="105.27207,106.3946"
       id="path-effect1"
       is_visible="true"
       lpeversion="1.2"
       lpesatellites=""
       mode="vertical"
       discard_orig_path="false"
       fuse_paths="false"
       oposite_fuse="false"
       split_items="false"
       split_open="false"
       link_styles="false" />
    <inkscape:path-effect
       effect="fillet_chamfer"
       id="path-effect9"
       is_visible="true"
       lpeversion="1"
       nodesatellites_param="F,0,0,1,0,1.1873316,0,1 @ F,0,0,1,0,0,0,1 @ F,0,0,1,0,1.1873316,0,1 @ F,0,0,1,0,1.1873316,0,1 @ F,0,0,1,0,1.1873316,0,1 @ F,0,0,1,0,1.1873316,0,1 @ F,0,0,1,0,1.1873316,0,1 | F,0,0,1,0,1.1873316,0,1 @ F,0,0,1,0,1.1873316,0,1 @ F,0,0,1,0,1.1873316,0,1 @ F,0,0,1,0,1.1873316,0,1 @ F,0,0,1,0,1.1873316,0,1 @ F,0,0,1,0,1.1873316,0,1 @ F,0,0,1,0,1.1873316,0,1"
       radius="5"
       unit="px"
       method="auto"
       mode="F"
       chamfer_steps="1"
       flexible="false"
       use_knot_distance="true"
       apply_no_radius="true"
       apply_with_radius="true"
       only_selected="false"
       hide_knots="false" />
    <inkscape:path-effect
       effect="mirror_symmetry"
       start_point="105.83333,-79.475239"
       end_point="105.83333,240.09991"
       center_point="105.83333,80.312336"
       id="path-effect8"
       is_visible="true"
       lpeversion="1.2"
       lpesatellites=""
       mode="vertical"
       discard_orig_path="false"
       fuse_paths="true"
       oposite_fuse="false"
       split_items="false"
       split_open="false"
       link_styles="false" />
    <inkscape:path-effect
       effect="mirror_symmetry"
       start_point="87.227675,21.795106"
       end_point="87.227675,246.80691"
       center_point="87.227675,134.30101"
       id="path-effect7"
       is_visible="true"
       lpeversion="1.2"
       lpesatellites=""
       mode="vertical"
       discard_orig_path="false"
       fuse_paths="false"
       oposite_fuse="false"
       split_items="false"
       split_open="false"
       link_styles="false" />
    <inkscape:path-effect
       effect="roughen"
       id="path-effect6"
       is_visible="true"
       lpeversion="1.2"
       global_randomize="1;1"
       displace_x="0.338398;1"
       displace_y="0.683334;1"
       method="size"
       max_segment_size="1.01519"
       segments="2"
       handles="along"
       shift_nodes="true"
       fixed_displacement="false"
       spray_tool_friendly="false" />
    <filter
       id="selectable_hidder_filter"
       width="1"
       height="1"
       x="0"
       y="0"
       style="color-interpolation-filters:sRGB;"
       inkscape:label="LPE boolean visibility">
      <feComposite
         id="boolops_hidder_primitive"
         result="composite1"
         operator="arithmetic"
         in2="SourceGraphic"
         in="BackgroundImage" />
    </filter>
    <inkscape:path-effect
       effect="bool_op"
       operand-path=""
       id="path-effect5"
       is_visible="true"
       lpeversion="1"
       operation="diff"
       swap-operands="false"
       filltype-this="from-curve"
       filter=""
       filltype-operand="from-curve" />
    <inkscape:path-effect
       effect="mirror_symmetry"
       start_point="87.227675,39.764355"
       end_point="87.227675,264.77616"
       center_point="87.227675,152.27026"
       id="path-effect4"
       is_visible="true"
       lpeversion="1.2"
       lpesatellites=""
       mode="vertical"
       discard_orig_path="false"
       fuse_paths="false"
       oposite_fuse="false"
       split_items="false"
       split_open="false"
       link_styles="false" />
    <inkscape:path-effect
       effect="envelope"
       id="path-effect3"
       is_visible="true"
       lpeversion="1"
       yy="true"
       xx="true"
       bendpath1="M 18.105632,69.596987 H 73.193637"
       bendpath2="M 73.193637,69.596987 V 126.37792"
       bendpath3="M 18.105632,126.37792 H 73.193637"
       bendpath4="M 18.105632,69.596987 V 126.37792" />
    <inkscape:path-effect
       effect="mirror_symmetry"
       start_point="128.89888,26.888846"
       end_point="96.686771,153.02902"
       center_point="112.79282,89.958932"
       id="path-effect14-4"
       is_visible="true"
       lpeversion="1.2"
       lpesatellites=""
       mode="vertical"
       discard_orig_path="false"
       fuse_paths="false"
       oposite_fuse="false"
       split_items="false"
       split_open="false"
       link_styles="false" />
  </defs>
  <g
     inkscape:label="Layer 1"
     inkscape:groupmode="layer"
     id="layer1">
    <g
       id="g11"
       inkscape:label="Head">
      <path
         id="path1-8"
         style="fill:#ffffffff;stroke-width:0.325099"
         d="M 25.324739 -41.663007 L 22.161756 -17.211919 L 13.800996 -25.323792 C 9.3741866 11.655848 8.273371 15.712262 8.4635606 36.344226 C 8.5393904 44.570369 11.044504 60.888159 11.044504 60.888159 L 2.3271872 56.621175 C 2.3271872 56.621175 7.847098 92.06374 18.611008 104.6893 L 8.2989357 113.20767 L 20.970371 126.30978 L 11.681158 125.76675 L 30.627065 145.58728 C 35.078814 156.00617 39.602324 164.97401 48.387048 171.47084 C 70.053464 187.49441 83.584603 195.96271 105.83411 199.89087 C 128.08363 195.96271 141.6132 187.49441 163.27962 171.47084 C 172.064 164.97427 176.58724 156.00642 181.03882 145.58806 L 199.98551 125.76675 L 190.6963 126.30978 L 203.36773 113.20767 L 193.05566 104.6893 C 203.81957 92.06374 209.33948 56.621175 209.33948 56.621175 L 200.62216 60.888159 C 200.62216 60.888159 203.12728 44.570369 203.20311 36.344226 C 203.3933 15.712262 202.29248 11.655848 197.86567 -25.323792 L 189.50491 -17.211919 L 186.34193 -41.663007 C 186.34193 -41.663007 140.62014 -7.8835267 126.10872 20.463775 C 120.31359 20.161116 113.73134 20.060565 105.83411 19.398785 C 97.93652 20.060597 91.353541 20.161082 85.557945 20.463775 C 71.046548 -7.8835356 25.324739 -41.663007 25.324739 -41.663007 z M 34.969729 -19.703919 C 37.960943 -19.654935 41.868189 -14.896283 44.761399 -12.426094 C 56.995462 -1.9807882 76.692387 23.760174 76.692387 23.760174 C 76.692387 23.760174 74.681966 21.755757 66.825036 18.657582 C 60.739483 16.257903 48.489256 16.748402 48.489256 16.748402 L 51.044453 41.239281 C 51.044453 41.239281 42.705902 37.339711 38.213073 36.952011 C 30.261005 36.265803 26.958504 38.279153 26.958504 38.279153 C 26.958504 38.279153 31.839043 49.722809 29.250769 54.549711 C 28.07608 56.740406 22.523775 57.769649 22.523775 57.769649 C 18.961598 35.235651 21.67569 5.3841425 27.683322 -8.8215113 C 30.012777 -14.329742 31.831314 -18.389607 33.749476 -19.41602 C 34.133773 -19.621659 34.542412 -19.710917 34.969729 -19.703919 z M 176.69694 -19.703919 C 177.12426 -19.710917 177.53289 -19.621659 177.91719 -19.41602 C 179.83535 -18.389607 181.65388 -14.329742 183.98335 -8.8215113 C 189.99098 5.3841425 192.70508 35.235651 189.14289 57.769649 C 189.14289 57.769649 183.59059 56.740406 182.4159 54.549711 C 179.82763 49.722809 184.70816 38.279153 184.70816 38.279153 C 184.70816 38.279153 181.40566 36.265803 173.45359 36.952011 C 168.96077 37.339711 160.62222 41.239281 160.62222 41.239281 L 163.17741 16.748402 C 163.17741 16.748402 150.92718 16.257903 144.84163 18.657582 C 136.9847 21.755757 134.97428 23.760174 134.97428 23.760174 C 134.97428 23.760174 154.67121 -1.9807882 166.90527 -12.426094 C 169.79848 -14.896283 173.70572 -19.654935 176.69694 -19.703919 z M 141.72 71.357054 C 144.64419 71.289339 146.86033 72.221983 147.40463 74.034744 C 148.27552 76.935183 144.53619 80.989052 139.05323 83.089113 C 133.57027 85.18919 126.85399 84.828581 125.98311 81.928157 C 125.11222 79.027733 130.41665 74.685966 135.89961 72.585889 C 137.95572 71.79836 139.9655 71.397683 141.72 71.357054 z M 69.946667 72.020235 C 71.701176 72.028418 73.710945 72.392684 75.767055 73.142181 C 81.250016 75.140874 86.554441 79.38458 85.683559 82.301098 C 84.812674 85.217632 78.096396 85.701834 72.613435 83.703141 C 67.130475 81.704447 63.391152 77.720567 64.262037 74.804034 C 64.806338 72.981218 67.022485 72.006586 69.946667 72.020235 z M 42.064204 93.739798 C 47.884167 94.015745 54.306773 93.628771 66.996683 95.865878 C 73.889264 97.298032 81.908736 97.92369 86.717341 101.29928 C 91.560838 104.69936 91.131005 108.64605 91.131005 111.69171 C 91.131005 115.66624 90.569064 119.04802 87.384423 122.31431 C 84.159683 125.62175 79.177836 125.75258 73.716656 125.82137 C 62.406046 125.96389 54.485041 119.60143 51.089705 115.89784 C 47.694369 112.19425 46.357943 107.67426 44.241778 101.57625 C 43.11382 98.325904 42.064204 93.739798 42.064204 93.739798 z M 169.60246 93.739798 C 169.60246 93.739798 168.55285 98.325904 167.42489 101.57625 C 165.30873 107.67426 163.9723 112.19425 160.57696 115.89784 C 157.18163 119.60143 149.26062 125.96389 137.95001 125.82137 C 132.48883 125.75258 127.50699 125.62175 124.28225 122.31431 C 121.0976 119.04802 120.53566 115.66624 120.53566 111.69171 C 120.53566 108.64605 120.10583 104.69936 124.94933 101.29928 C 129.75793 97.92369 137.7774 97.298032 144.66998 95.865878 C 157.3599 93.628771 163.7825 94.015745 169.60246 93.739798 z M 105.83411 135.35011 C 107.8881 135.35012 111.50757 135.65012 113.23287 136.0757 C 117.51505 137.13201 118.78275 139.27691 118.78253 141.82587 C 118.78256 144.17937 116.22921 146.34989 112.11249 147.491 C 110.92317 148.29063 111.22294 151.84061 110.41084 153.46509 C 109.15094 155.9853 106.87805 157.25817 105.83411 157.26004 C 104.79018 157.25817 102.51495 155.9853 101.25505 153.46509 C 100.44295 151.84061 100.74584 148.29063 99.556522 147.491 C 95.439816 146.34989 92.883332 144.17937 92.883362 141.82587 C 92.883136 139.27691 94.150835 137.13201 98.433016 136.0757 C 100.15833 135.65012 103.78013 135.35012 105.83411 135.35011 z M 105.83411 168.79315 C 106.70675 169.69463 109.35382 175.87463 112.84042 177.99654 C 116.52205 180.23714 125.9363 180.59152 125.9363 180.59152 C 125.9363 180.59152 123.87732 180.97896 121.06543 180.99255 C 117.03418 181.01141 111.45229 180.26201 108.16383 176.49853 C 107.5581 175.80529 106.78126 175.21415 105.83411 175.04187 C 104.88697 175.21415 104.10779 175.80529 103.50206 176.49853 C 100.2136 180.26201 94.631712 181.01141 90.60046 180.99255 C 87.788576 180.97896 85.731932 180.59152 85.731932 180.59152 C 85.731932 180.59152 95.143056 180.23714 98.824683 177.99654 C 102.31129 175.87463 104.96148 169.69463 105.83411 168.79315 z "
         transform="matrix(0.6623377,0,0,0.6623377,35.735928,52.639447)" />
    </g>
  </g>
  <metadata
     id="metadata18">
    <rdf:RDF>
      <cc:Work
         rdf:about="">
        <dc:title>Saperate`s Logo</dc:title>
        <dc:date>4/19/2026</dc:date>
        <dc:creator>
          <cc:Agent>
            <dc:title>Saperate</dc:title>
          </cc:Agent>
        </dc:creator>
      </cc:Work>
    </rdf:RDF>
  </metadata>
</svg>
